<?xml version="1.0" encoding="UTF-8"?>
<svg xmlns="http://www.w3.org/2000/svg" width="200" height="160" viewBox="0 0 2e7 1.508e7">
  <path style="fill:#204982"
   d="m6026765 2907127c-299804-1015676-1113594-904356-1.67e6 -431300-1370626 1266075-3155291 3923495-2013094 7.75e6 956578 3241739 4936901 5314839 4936901 5314839h-4.64e6s-2395828-2685264-2.61e6 -5843500c-271260-3993020 1327930-6511332 3183988-8153020 1741824-1544365 3398006-2003480 3398006-2003480l3387831 1.11e7 3387831-1.11e7s1656182 459116 3398006 2003480c1856058 1641687 3455248 4.16e6 3183988 8153020-214173 3158236-2.61e6 5843500-2.61e6 5843500h-4.64e6s3.98e6 -2073100 4936900-5314839c1142197-3826069-642468-6483489-2013094-7.75e6 -556826-473056-1370617-584376-1.67e6 431300-1027971 3241740-3973210 1.253e7 -3973210 1.253e7s-2945239-9291363-3973210-1.253e7z"/>
</svg>